<svg width="20" height="20" viewBox="0 0 20 20" fill="none" xmlns="http://www.w3.org/2000/svg">
<path d="M15.04 0.400024H8.64C8.24 0.400024 7.92 0.480024 7.68 0.640024C7.44 0.720024 7.2 0.880024 6.96 1.12002L3.28 4.64003C3.04 4.80002 2.88 5.04002 2.72 5.36002C2.56 5.68002 2.48 6.00002 2.48 6.40002V17.04C2.48 18.4 3.6 19.52 4.96 19.52H15.04C16.4 19.52 17.52 18.4 17.52 17.04V2.88002C17.52 1.52002 16.4 0.400024 15.04 0.400024ZM6.24 16.4H5.92C5.52 16.4 5.12 16 5.12 15.6C5.12 15.12 5.52 14.8 5.92 14.8H6.24C6.64 14.8 7.04 15.12 7.04 15.6C7.04 16.08 6.72 16.4 6.24 16.4ZM6.24 13.2H5.92C5.52 13.2 5.12 12.8 5.12 12.4C5.12 12 5.52 11.6 5.92 11.6H6.24C6.64 11.6 7.04 12 7.04 12.4C7.04 12.8 6.72 13.2 6.24 13.2ZM6.24 10H5.92C5.52 10 5.12 9.60003 5.12 9.20003C5.12 8.72003 5.52 8.40003 5.92 8.40003H6.24C6.64 8.40003 7.04 8.72003 7.04 9.20003C7.04 9.68003 6.72 10 6.24 10ZM14.08 16.4H9.44C8.96 16.4 8.64 16 8.64 15.6C8.64 15.12 8.96 14.8 9.44 14.8H14.08C14.48 14.8 14.88 15.12 14.88 15.6C14.88 16.08 14.56 16.4 14.08 16.4ZM14.08 13.2H9.44C8.96 13.2 8.64 12.8 8.64 12.4C8.64 12 8.96 11.6 9.44 11.6H14.08C14.48 11.6 14.88 12 14.88 12.4C14.88 12.8 14.56 13.2 14.08 13.2ZM14.08 10H9.44C8.96 10 8.64 9.60003 8.64 9.20003C8.64 8.72003 8.96 8.40003 9.44 8.40003H14.08C14.48 8.40003 14.88 8.72003 14.88 9.20003C14.88 9.68003 14.56 10 14.08 10Z" fill="#008046"/>
</svg>
