<svg width="20" height="20" viewBox="0 0 20 20" fill="none" xmlns="http://www.w3.org/2000/svg">
<path d="M14.24 2.32043H14.0667C14.1399 2.52714 14.1733 2.76054 14.1733 3.00045C14.1733 4.28723 13.12 5.32711 11.84 5.32711H8.15996C6.87334 5.32711 5.8333 4.28723 5.8333 3.00045C5.8333 2.76054 5.86666 2.52714 5.93999 2.32043H5.75997C4.64661 2.32043 3.74004 3.2205 3.74004 4.33378V15.9738C3.74004 17.0939 4.64661 18.0004 5.75997 18.0004H14.24C15.3533 18.0004 16.26 17.0939 16.26 15.9738V4.33378C16.26 3.2205 15.3533 2.32043 14.24 2.32043ZM7.91329 14.8471C7.91329 15.0338 7.75997 15.1805 7.57996 15.1805H6.25997C6.07337 15.1805 5.91997 15.0338 5.91997 14.8471V13.5271C5.91997 13.3405 6.07337 13.1938 6.25997 13.1938H7.57996C7.75997 13.1938 7.91329 13.3405 7.91329 13.5271V14.8471ZM7.91329 10.8671C7.91329 11.0538 7.75997 11.2005 7.57996 11.2005H6.25997C6.07337 11.2005 5.91997 11.0538 5.91997 10.8671V9.54716C5.91997 9.36047 6.07337 9.21383 6.25997 9.21383H7.57996C7.75997 9.21383 7.91329 9.36047 7.91329 9.54716V10.8671ZM13.42 14.8471H9.90003C9.53333 14.8471 9.24004 14.5538 9.24004 14.1871C9.24004 13.8204 9.53333 13.5205 9.90003 13.5205H13.42C13.78 13.5205 14.08 13.8204 14.08 14.1871C14.08 14.5538 13.78 14.8471 13.42 14.8471ZM13.42 10.8671H9.90003C9.53333 10.8671 9.24004 10.5739 9.24004 10.2072C9.24004 9.84045 9.53333 9.54049 9.90003 9.54049H13.42C13.78 9.54049 14.08 9.84045 14.08 10.2072C14.08 10.5739 13.78 10.8671 13.42 10.8671Z" fill="#008046"/>
<path d="M12.8422 3.00117V3.00117C12.8422 3.55437 12.3938 4.00283 11.8406 4.00283H8.15902C7.60582 4.00283 7.15736 3.55437 7.15736 3.00117V3.00117C7.15736 2.44797 7.60582 1.99951 8.15902 1.99951H11.8406C12.3938 1.99951 12.8422 2.44797 12.8422 3.00117Z" fill="#008046"/>
</svg>
