<svg width="20" height="15" viewBox="0 0 20 15" fill="none" xmlns="http://www.w3.org/2000/svg">
<path d="M9.24728 14.1642C12.5595 14.1642 16.0936 13.4135 16.0936 11.3178V7.61914L10.3804 9.82427C9.89704 10.0354 9.19973 10.0589 8.61336 9.81646L2.401 7.41583V11.3178C2.401 13.7028 6.81463 14.1642 9.24728 14.1642Z" fill="#D7793C"/>
<path d="M19.2076 8.26815V4.3818C19.2076 4.05338 19.0016 3.77187 18.7084 3.6624C18.6529 3.61548 18.5895 3.57638 18.5182 3.55292L9.79398 0.182665C9.61173 0.112289 9.40571 0.112289 9.21553 0.182665L0.507132 3.5451C0.198098 3.66239 0 3.95172 0 4.28014C0 4.60857 0.198098 4.89007 0.507132 5.00737L9.22346 8.36981C9.38986 8.44018 9.61173 8.448 9.8019 8.36981L17.6228 5.35143V8.26815C17.1553 8.54184 16.8304 9.04229 16.8304 9.61312C16.8304 10.4811 17.5436 11.177 18.4152 11.177C19.2868 11.177 20 10.4811 20 9.61312C20 9.03447 19.6751 8.54184 19.2076 8.26815Z" fill="#D7793C"/>
</svg>
