<svg width="23" height="20" viewBox="0 0 23 20" fill="none" xmlns="http://www.w3.org/2000/svg">
<g clip-path="url(#clip0_106_1323)">
<path d="M4.96781 18.24C4.96781 18.24 5.05745 18.24 4.96781 18.24L5.05745 18.4C5.05745 19.04 5.68492 19.6 6.40203 19.6C7.11914 19.6 7.74661 19.04 7.74661 18.4V10.4C7.74661 9.75998 7.11914 9.19998 6.40203 9.19998C5.68492 9.19998 5.05745 9.67998 5.05745 10.4V10.56H4.96781C4.6989 10.56 4.42998 10.56 4.16107 10.64V8.71998C4.16107 5.19998 7.38805 2.31998 11.3321 2.31998C15.3659 2.31998 18.5032 5.19998 18.5032 8.71998V10.64C18.2343 10.56 17.9654 10.56 17.6965 10.56H17.6068V10.4C17.6068 9.75998 17.069 9.19998 16.2623 9.19998C15.4555 9.19998 14.9177 9.67998 14.9177 10.4V18.4C14.9177 19.04 15.4555 19.6 16.2623 19.6C17.069 19.6 17.6068 19.04 17.6068 18.4V18.24C17.6068 18.24 17.6068 18.24 17.6965 18.24C20.1167 18.24 21.9991 16.48 21.9991 14.4C21.9991 13.2 21.3717 12.16 20.3856 11.44V8.63998C20.3856 4.15998 16.2623 0.47998 11.2425 0.47998C6.40203 0.47998 2.27866 4.07998 2.27866 8.63998V11.44C1.29263 12.16 0.665161 13.2 0.665161 14.4C0.665161 16.48 2.63721 18.24 4.96781 18.24Z" fill="#D7793C"/>
</g>
<defs>
<clipPath id="clip0_106_1323">
<rect width="22.4096" height="20" fill="white" transform="translate(0.216919)"/>
</clipPath>
</defs>
</svg>
