<svg width="18" height="18" viewBox="0 0 18 18" fill="none" xmlns="http://www.w3.org/2000/svg">
<g id="icons/help-icon">
<path id="Combined Shape" fill-rule="evenodd" clip-rule="evenodd" d="M0 9C0 4.03 4.03 0 9 0C13.97 0 18 4.03 18 9C18 13.97 13.97 18 9 18C4.03 18 0 13.97 0 9ZM8.27 14H9.61V12.74H8.27V14ZM9.08 5C8.12 5 7.37 5.26 6.82 5.8C6.27 6.33 6 7.03 6 7.9H7.2C7.22 7.37 7.31 6.97 7.47 6.69C7.76 6.19 8.28 5.94 9.03 5.94C9.64 5.94 10.07 6.09 10.33 6.38C10.6 6.67 10.73 7.01 10.73 7.41C10.73 7.69 10.64 7.96 10.46 8.22C10.36 8.37 10.23 8.52 10.07 8.65L9.53 9.13C9.01 9.59 8.68 9.99 8.53 10.34C8.37 10.7 8.3 11.16 8.3 11.74H9.49C9.49 11.23 9.56 10.85 9.69 10.59C9.82 10.33 10.09 10.01 10.53 9.63C11.12 9.12 11.51 8.73 11.71 8.46C11.9 8.19 12 7.85 12 7.42C12 6.71 11.73 6.13 11.2 5.68C10.67 5.23 9.96 5 9.08 5Z" fill="#666666"/>
<mask id="mask0_62_2885" style="mask-type:luminance" maskUnits="userSpaceOnUse" x="0" y="0" width="18" height="18">
<path id="Combined Shape_2" fill-rule="evenodd" clip-rule="evenodd" d="M0 9C0 4.03 4.03 0 9 0C13.97 0 18 4.03 18 9C18 13.97 13.97 18 9 18C4.03 18 0 13.97 0 9ZM8.27 14H9.61V12.74H8.27V14ZM9.08 5C8.12 5 7.37 5.26 6.82 5.8C6.27 6.33 6 7.03 6 7.9H7.2C7.22 7.37 7.31 6.97 7.47 6.69C7.76 6.19 8.28 5.94 9.03 5.94C9.64 5.94 10.07 6.09 10.33 6.38C10.6 6.67 10.73 7.01 10.73 7.41C10.73 7.69 10.64 7.96 10.46 8.22C10.36 8.37 10.23 8.52 10.07 8.65L9.53 9.13C9.01 9.59 8.68 9.99 8.53 10.34C8.37 10.7 8.3 11.16 8.3 11.74H9.49C9.49 11.23 9.56 10.85 9.69 10.59C9.82 10.33 10.09 10.01 10.53 9.63C11.12 9.12 11.51 8.73 11.71 8.46C11.9 8.19 12 7.85 12 7.42C12 6.71 11.73 6.13 11.2 5.68C10.67 5.23 9.96 5 9.08 5Z" fill="white"/>
</mask>
<g mask="url(#mask0_62_2885)">
</g>
</g>
</svg>
