<svg id="Layer_1" xmlns="http://www.w3.org/2000/svg" width="162.4" height="23" viewBox="-216 409.9 162.4 23"><style>.st0{fill:#e78224}.st1{fill:#312416}</style><path class="st0" d="M-201.8 418.5s-.1-4.8-4.6-6.3-7.4 2.4-7.4 2.4c-.2.2-.5.7-.3 1.6.3 1.4 2.4 1.9 3.3.7 0 0 1.2-1.8 3.3-1.1 2.1.7 2 2.9 2 2.9 0 1.5 2 2.3 3.1 1.4.6-.7.6-1.3.6-1.6"/><path class="st0" d="M-210.1 419.4c-.1 0-.3 0-.4-.1l-3.4-1c-.5-.1-.8-.5-1-1l-1-3.4c-.2-.8.2-1.6 1-1.8.8-.2 1.6.2 1.8 1l.8 2.7 2.7.8c.8.2 1.2 1 1 1.8-.3.6-.9 1-1.5 1zm-5.9 1.8s.1 4.8 4.6 6.3 7.4-2.4 7.4-2.4c.2-.2.5-.7.3-1.6-.3-1.4-2.4-1.9-3.3-.7 0 0-1.2 1.8-3.3 1.1-2.1-.7-2-2.9-2-2.9 0-1.5-2-2.3-3.1-1.4-.6.7-.6 1.3-.6 1.6"/><path class="st0" d="M-207.6 420.4c.1 0 .3 0 .4.1l3.4 1c.5.1.8.5 1 1l1 3.4c.2.8-.2 1.6-1 1.8-.8.2-1.6-.2-1.8-1l-.8-2.7-2.7-.8c-.8-.2-1.2-1-1-1.8.3-.6.9-1 1.5-1z"/><path class="st1" d="M-194.6 413c0-1.1.7-1.8 1.8-1.8h3.9c5.2 0 8.2 3.4 8.2 8.5 0 4.9-3.2 8.1-8 8.1h-4.1c-.8 0-1.8-.4-1.8-1.7V413zm3.5 11.6h2.4c3 0 4.4-2.2 4.4-5 0-3-1.4-5.1-4.6-5.1h-2.1c-.1 0-.1 10.1-.1 10.1zm23.5-3c0 3.5-2.4 6.4-6 6.4s-6-3-6-6.4c0-3.4 2.5-6.5 6-6.5 3.5.1 6 3.1 6 6.5zm-8.7 0c0 1.6.8 3.4 2.7 3.4s2.7-1.8 2.7-3.4c0-1.6-.8-3.4-2.7-3.4-1.9 0-2.7 1.8-2.7 3.4zm10.1-4.4c0-1.1.7-1.9 1.7-1.9.9 0 1.5.5 1.7 1.4.6-1 1.9-1.5 3.2-1.5 3.6 0 5.4 3.4 5.4 6.6 0 3.2-2.1 6.3-5.5 6.3-1 0-2.2-.4-3.1-1.2v4.1c0 1.1-.7 1.9-1.7 1.9s-1.7-.7-1.7-1.9v-13.8zm6 7.8c1.7 0 2.6-1.8 2.6-3.4 0-1.6-.9-3.4-2.6-3.4-1.8 0-2.6 1.7-2.6 3.3-.1 1.7.7 3.5 2.6 3.5zm7.3-7.8c0-1.1.7-1.9 1.7-1.9.9 0 1.5.5 1.7 1.4.6-1 1.9-1.5 3.2-1.5 3.6 0 5.4 3.4 5.4 6.6 0 3.2-2.1 6.3-5.5 6.3-1 0-2.2-.4-3.1-1.2v4.1c0 1.1-.7 1.9-1.7 1.9s-1.7-.7-1.7-1.9v-13.8zm6 7.8c1.7 0 2.6-1.8 2.6-3.4 0-1.6-.9-3.4-2.6-3.4-1.8 0-2.6 1.7-2.6 3.3 0 1.7.8 3.5 2.6 3.5zm7.3-13.2c0-1.1.7-1.9 1.7-1.9s1.7.7 1.7 1.9v14.3c0 1.1-.7 1.9-1.7 1.9s-1.7-.7-1.7-1.9v-14.3zm8 10.9c.2 1.7 1.6 2.4 3.2 2.4 1.7 0 2.9-1.3 3.8-1.3.7 0 1.4.7 1.4 1.4 0 1.4-3 2.8-5.5 2.8-3.8 0-6.3-2.7-6.3-6.4 0-3.4 2.5-6.5 6-6.5 3.6 0 6 3.3 6 6.1 0 1-.4 1.5-1.5 1.5h-7.1zm5.2-2.2c-.2-1.5-1.1-2.6-2.7-2.6-1.5 0-2.5 1.1-2.7 2.6h5.4zm4.5-3.5c0-1.1.9-1.7 1.7-1.7.9 0 1.6.3 1.6 1.4.6-.9 1.3-1.4 2.4-1.4.8 0 1.6.6 1.6 1.8 0 1.1-1 1.2-2 1.6-1 .5-2 .9-2 2.2v5.1c0 1.1-.7 1.9-1.7 1.9s-1.7-.7-1.7-1.9l.1-9zm14.1-3.9c0-1.1.6-1.8 1.8-1.8h4.1c3.6 0 5.8 1.6 5.8 5.3 0 2.6-1.9 4-4.3 4.4l4 4.2c.3.4.5.7.5 1 0 .9-.7 1.8-1.7 1.8-.4 0-1-.2-1.4-.6l-5.2-6.3v5.1c0 1.2-.7 1.8-1.7 1.8s-1.7-.7-1.7-1.8v-13.1zm3.5 5.5h2.4c1.3 0 2.2-.8 2.2-2.1s-.9-2-2.2-2h-2.4v4.1z"/><path class="st0" d="M-87 420.5c-.2-1.7-1.6-2.4-3.2-2.4-1.7 0-2.9 1.4-3.8 1.4-.7 0-1.4-.7-1.4-1.4 0-1.4 3-2.8 5.5-2.8 3.8 0 6.3 2.7 6.3 6.4 0 3.4-2.5 6.5-6 6.5-3.6 0-6-3.3-6-6.1 0-1 .4-1.5 1.5-1.5l7.1-.1zm-5.3 2.2c.2 1.5 1.1 2.6 2.7 2.6 1.5 0 2.5-1.1 2.7-2.6h-5.4z"/><path class="st1" d="M-82.5 411.8c0-1.1.7-1.9 1.7-1.9s1.7.7 1.7 1.9v14.3c0 1.1-.7 1.9-1.7 1.9s-1.7-.7-1.7-1.9v-14.3zm16.7 14c0 .9 0 2.2-1.6 2.2-1 0-1.4-.5-1.6-1.4-.9 1-1.9 1.6-3.2 1.6-3.1 0-5.5-2.7-5.5-6.4s2.5-6.5 5.5-6.5c1.2 0 2.4.5 3.2 1.5.1-.8.8-1.4 1.6-1.4 1.6 0 1.6 1.3 1.6 2.2v8.2zm-5.9-.8c1.7 0 2.6-1.8 2.6-3.4 0-1.6-.8-3.4-2.6-3.4s-2.7 1.8-2.7 3.4c0 1.7.9 3.4 2.7 3.4zm7-7.4c-.1-.3-.2-.5-.2-.9 0-.8.9-1.4 1.6-1.4.8 0 1.4.4 1.7 1.2l2.3 6.3 2.5-6.3c.3-.7.9-1.2 1.7-1.2.7 0 1.6.6 1.6 1.4 0 .3 0 .6-.2.9l-5.6 14c-.3.7-.8 1.3-1.6 1.3-1.1 0-1.7-.7-1.7-1.4 0-.3.1-.7.2-1l1.5-3.6-3.8-9.3z"/></svg>