<svg width="17" height="21" viewBox="0 0 17 21" fill="none" xmlns="http://www.w3.org/2000/svg">
<path d="M0.600011 19.3665C0.576011 19.6671 0.712011 19.9596 0.960011 20.122C1.20001 20.2845 1.52001 20.3007 1.78401 20.1626L6.40001 17.7093L1.02401 14.0781L0.600011 19.3665Z" fill="#D7793C"/>
<path d="M15.92 6.16585L14.84 5.43473C15.8 3.68818 15.216 1.61668 13.712 0.609364C12.048 -0.511681 9.81604 -0.048641 8.71204 1.63293L1.59204 12.5184L7.59204 16.5639L13.976 6.79948L15.032 7.51435C15.312 7.70119 15.392 8.09112 15.2 8.37545L12.24 12.9002C11.992 13.2739 12.096 13.7776 12.464 14.0294C12.832 14.2812 13.328 14.1756 13.576 13.802L16.536 9.27716C17.208 8.24547 16.936 6.84822 15.92 6.16585Z" fill="#D7793C"/>
</svg>
