<svg width="20" height="20" viewBox="0 0 20 20" fill="none" xmlns="http://www.w3.org/2000/svg">
<path d="M17.3741 14.3527C16.9326 13.9113 15.6192 12.9774 14.354 12.314C14.3543 12.3135 14.3546 12.3131 14.3549 12.3126C15.9863 9.75368 15.7334 6.25112 13.4416 3.95935C10.8431 1.36084 6.61497 1.32712 3.95486 3.95935C1.34826 6.5793 1.34826 10.826 3.95486 13.4393C6.26495 15.7375 9.76897 15.9785 12.3082 14.3526C12.3087 14.3523 12.3091 14.3519 12.3095 14.3516C12.9732 15.6182 13.9087 16.9342 14.3507 17.3762C15.1853 18.2108 16.5393 18.2108 17.3741 17.3762C18.2088 16.5415 18.2088 15.1875 17.3741 14.3527ZM10.2749 10.6926C10.0616 10.6926 9.8616 10.5726 9.75491 10.3859L8.70161 8.51924L7.64822 10.3859C7.54162 10.5726 7.34158 10.6926 7.12153 10.6926C6.90823 10.6926 6.70828 10.5726 6.60159 10.3859L5.02827 7.59932C4.8616 7.31262 4.96154 6.946 5.25491 6.78601C5.54162 6.61934 5.90823 6.71928 6.06831 7.01257L7.12153 8.8726L8.18159 7.01257C8.2882 6.81929 8.48823 6.70593 8.70161 6.70593C8.91491 6.70593 9.11494 6.81929 9.22163 7.01257L10.2749 8.8726L11.3349 7.01257C11.4949 6.71928 11.8616 6.61934 12.1482 6.78601C12.4416 6.946 12.5416 7.31262 12.3749 7.59932L10.8015 10.3859C10.6949 10.5726 10.4949 10.6926 10.2749 10.6926Z" fill="#008046"/>
</svg>
