<svg width="20" height="20" viewBox="0 0 20 20" fill="none" xmlns="http://www.w3.org/2000/svg">
<path d="M17.167 4.2513H5.97713L5.83618 3.49609C5.69458 2.73568 5.03019 2.18359 4.25675 2.18359H2.83293C2.46476 2.18359 2.16626 2.4821 2.16626 2.85026C2.16626 3.21842 2.46476 3.51693 2.83293 3.51693H4.25675C4.38827 3.51693 4.50155 3.611 4.52563 3.74056L4.76815 5.04036C4.76864 5.04289 4.7703 5.0448 4.77079 5.04732L5.83565 11.4546C4.93469 11.5821 4.23722 12.3505 4.23722 13.2861C4.23722 14.3105 5.07056 15.1439 6.09497 15.1439H15.5667C15.9348 15.1439 16.2333 14.8454 16.2333 14.4772C16.2333 14.109 15.9348 13.8105 15.5667 13.8105H6.09497C5.80591 13.8105 5.57056 13.5752 5.57056 13.2861C5.57056 12.9971 5.80591 12.7617 6.09497 12.7617C19.6236 12.7657 14.9576 12.7643 15.967 12.7646C16.2937 12.7646 16.5736 12.5246 16.627 12.2046L17.827 5.02462C17.8841 4.61064 17.5728 4.2513 17.167 4.2513Z" fill="#8C6698"/>
<path d="M7.55493 15.8223C7.0026 15.8223 6.55493 16.2642 6.55493 16.8165C6.55493 17.3688 7.0026 17.8164 7.55493 17.8164C8.10726 17.8164 8.55493 17.3688 8.55493 16.8165C8.55493 16.2642 8.10726 15.8223 7.55493 15.8223Z" fill="#8C6698"/>
<path d="M13.7611 15.8105C13.2088 15.8105 12.7611 16.2524 12.7611 16.8048C12.7611 17.3571 13.2088 17.8047 13.7611 17.8047C14.3134 17.8047 14.7611 17.3571 14.7611 16.8048C14.7611 16.2524 14.3134 15.8105 13.7611 15.8105Z" fill="#8C6698"/>
</svg>
