<svg width="23" height="20" viewBox="0 0 23 20" fill="none" xmlns="http://www.w3.org/2000/svg">
<g clip-path="url(#clip0_106_1336)">
<path d="M3.64589 19.6H18.8844C20.6772 19.6 22.0218 18.24 22.0218 16.8V3.20002C22.0218 1.68002 20.5876 0.400024 18.8844 0.400024H3.64589C1.94276 0.400024 0.508545 1.68002 0.508545 3.20002C0.508545 4.56002 0.508545 -1.83998 0.508545 16.8C0.508545 18.32 1.94276 19.6 3.64589 19.6ZM2.30132 3.20002C2.30132 2.56002 2.92879 2.00002 3.64589 2.00002H18.8844C19.6016 2.00002 20.229 2.56002 20.229 3.20002V14.32H2.30132V3.20002Z" fill="#D7793C"/>
<path d="M13.8647 6.79998L10.548 4.87998C10.0999 4.55998 9.47239 4.55998 8.93455 4.79998C8.39672 5.03998 8.12781 5.51998 8.12781 6.07998V9.91998C8.12781 11.04 9.56202 11.76 10.6377 11.12L13.9543 9.19998C14.8507 8.63998 14.8507 7.35998 13.8647 6.79998Z" fill="#D7793C"/>
</g>
<defs>
<clipPath id="clip0_106_1336">
<rect width="22.4096" height="20" fill="white" transform="translate(0.0603027)"/>
</clipPath>
</defs>
</svg>
